<?xml version="1.0" encoding="iso-8859-1"?>
<!-- Generator: Adobe Illustrator 19.0.0, SVG Export Plug-In . SVG Version: 6.00 Build 0)  -->
<svg width="20px" height="20px" version="1.1" id="Capa_1" xmlns="http://www.w3.org/2000/svg" xmlns:xlink="http://www.w3.org/1999/xlink" x="0px" y="0px"
	 viewBox="0 0 305.692 305.692" style="enable-background:new 0 0 305.692 305.692;" xml:space="preserve">
<g>
	<path d="M166.43,8.071L0,174.501l130.814,130.814l164.403-164.402l2.009-2.01l8.466-138.526L166.43,8.071z M282.602,132.315
		L130.814,284.103L21.213,174.501l151.77-151.77l116.71-6.448L282.602,132.315z"/>
	<path d="M235.467,99.849c8.013,0,15.547-3.12,21.214-8.787c11.695-11.696,11.695-30.729-0.001-42.427
		c-5.666-5.666-13.2-8.786-21.213-8.786s-15.547,3.12-21.214,8.786c-5.666,5.667-8.787,13.2-8.787,21.214s3.121,15.547,8.788,21.214
		C219.92,96.729,227.454,99.849,235.467,99.849z M224.859,59.242c2.834-2.833,6.601-4.394,10.607-4.394s7.773,1.561,10.606,4.393
		c5.849,5.849,5.849,15.366,0.001,21.214c-2.834,2.833-6.601,4.394-10.607,4.394s-7.773-1.561-10.606-4.394
		c-2.834-2.833-4.395-6.6-4.395-10.606S222.026,62.075,224.859,59.242z"/>
</g>
<g>
</g>
<g>
</g>
<g>
</g>
<g>
</g>
<g>
</g>
<g>
</g>
<g>
</g>
<g>
</g>
<g>
</g>
<g>
</g>
<g>
</g>
<g>
</g>
<g>
</g>
<g>
</g>
<g>
</g>
</svg>
